<svg width="110" height="37" viewBox="0 0 110 37" fill="none" xmlns="http://www.w3.org/2000/svg">
<mask id="mask0_9019_100" style="mask-type:luminance" maskUnits="userSpaceOnUse" x="0" y="0" width="28" height="28">
<path d="M0 0H27.331V27.9766H0V0Z" fill="white"/>
</mask>
<g mask="url(#mask0_9019_100)">
<path d="M27.0994 12.7437H14.2729V16.5477H23.3701C22.9194 21.8721 18.4805 24.1577 14.2883 24.1577C14.1228 24.1583 13.9573 24.155 13.7919 24.1476C13.6267 24.1399 13.4615 24.1283 13.2969 24.1129C13.132 24.0972 12.9677 24.0773 12.804 24.0536C12.6403 24.0296 12.4772 24.0017 12.3147 23.97C12.1525 23.938 11.9908 23.9021 11.8304 23.862C11.6697 23.8223 11.5101 23.7784 11.3518 23.7304C11.1934 23.6826 11.0362 23.631 10.8802 23.5753C10.7245 23.5195 10.57 23.4602 10.4173 23.3967C10.2643 23.3336 10.113 23.2665 9.96356 23.1957C9.81409 23.1248 9.66611 23.0504 9.5205 22.9721C9.37459 22.8941 9.23076 22.8122 9.089 22.7271C8.94695 22.6417 8.80757 22.553 8.66996 22.4608C8.53265 22.3686 8.39772 22.2731 8.26516 22.174C8.1323 22.0753 8.00241 21.9729 7.87459 21.8677C7.74707 21.7624 7.62222 21.6539 7.50003 21.5423C7.37785 21.4308 7.25863 21.3161 7.14208 21.1986C7.02554 21.0812 6.91195 20.9608 6.80163 20.8377C6.69102 20.7146 6.58366 20.5889 6.47927 20.4605C6.37518 20.3321 6.27405 20.201 6.17619 20.0676C6.07862 19.9341 5.98402 19.7983 5.89327 19.6601C5.80223 19.5219 5.71444 19.3816 5.63052 19.2393C5.54659 19.0966 5.46593 18.9522 5.38912 18.8057C5.31231 18.6592 5.23906 18.5109 5.16966 18.3608C5.10027 18.2105 5.03443 18.0589 4.97245 17.9056C4.91047 17.752 4.85234 17.5972 4.79807 17.4409C4.7438 17.2846 4.69339 17.1272 4.64712 16.9685C4.60056 16.8098 4.55816 16.65 4.5196 16.489C4.48105 16.3282 4.44665 16.1663 4.4161 16.0038C4.38585 15.8413 4.35916 15.6779 4.33692 15.5142C4.31468 15.3502 4.29629 15.1859 4.28206 15.021C4.26782 14.8564 4.25774 14.6912 4.25181 14.526C4.24588 14.3605 4.2441 14.1954 4.24618 14.0299C4.24618 8.27128 8.70674 3.83771 14.3005 3.83771C18.6157 3.83771 21.1584 6.58682 21.1584 6.58682L23.8221 3.82822C23.8221 3.82822 20.4001 0.0224609 14.1611 0.0224609C6.21622 0.0224609 0.0703125 6.72413 0.0703125 13.9623C0.0703125 21.0551 5.85145 27.9718 14.3618 27.9718C21.8479 27.9718 27.3277 22.846 27.3277 15.2668C27.3277 13.6675 27.0952 12.7437 27.0952 12.7437H27.0994Z" fill="#4885ED"/>
</g>
<path d="M37.6082 9.98819C32.3442 9.98819 28.5723 14.1015 28.5723 18.8966C28.5723 23.7643 32.2297 27.9532 37.6695 27.9532C42.5933 27.9532 46.6265 24.1922 46.6265 19.001C46.6265 13.062 41.9344 9.9873 37.6082 9.9873V9.98819ZM37.6595 13.5167C40.2472 13.5167 42.6998 15.6086 42.6998 18.9784C42.6998 22.2756 40.2573 24.4277 37.647 24.4277C34.7784 24.4277 32.5245 22.132 32.5245 18.9517C32.5245 15.839 34.7579 13.5167 37.6675 13.5167H37.6595Z" fill="#DB3236"/>
<path d="M57.2588 9.98819C51.9949 9.98819 48.2227 14.1015 48.2227 18.8966C48.2227 23.7643 51.8801 27.9532 57.3202 27.9532C62.2437 27.9532 66.2772 24.1922 66.2772 19.001C66.2772 13.062 61.5851 9.9873 57.2588 9.9873V9.98819ZM57.3099 13.5167C59.8979 13.5167 62.3505 15.6086 62.3505 18.9784C62.3505 22.2756 59.908 24.4277 57.2977 24.4277C54.4291 24.4277 52.1752 22.132 52.1752 18.9517C52.1752 15.839 54.4086 13.5167 57.3182 13.5167H57.3099Z" fill="#F4C20D"/>
<mask id="mask1_9019_100" style="mask-type:luminance" maskUnits="userSpaceOnUse" x="67" y="9" width="19" height="28">
<path d="M67.8711 9.9834H85.1807V36.0424H67.8711V9.9834Z" fill="white"/>
</mask>
<g mask="url(#mask1_9019_100)">
<path d="M76.5324 9.99902C71.7009 9.99902 67.9043 14.2277 67.9043 18.9747C67.9043 24.3813 72.3064 27.967 76.4485 27.967C79.0096 27.967 80.3723 26.9501 81.366 25.784V27.5554C81.366 30.6547 79.4829 32.5112 76.641 32.5112C73.8954 32.5112 72.5185 30.4706 72.0309 29.3134L68.5763 30.747C69.8017 33.3377 72.2685 36.0376 76.6697 36.0376C81.4847 36.0376 85.1338 33.0142 85.1338 26.6716V10.5385H81.3803V12.0601C80.2225 10.811 78.6368 9.99902 76.5345 9.99902H76.5324ZM76.8809 13.5213C79.2492 13.5213 81.6816 15.5426 81.6816 18.9943C81.6816 22.5032 79.2534 24.4365 76.8284 24.4365C74.2531 24.4365 71.8566 22.3475 71.8566 19.0269C71.8566 15.5782 74.3462 13.5201 76.8809 13.5201V13.5213Z" fill="#4885ED"/>
</g>
<path d="M101.911 9.97754C97.3539 9.97754 93.5273 13.6024 93.5273 18.9473C93.5273 24.6057 97.7925 27.9609 102.338 27.9609C106.141 27.9609 108.485 25.8824 109.868 24.0188L106.761 21.9526C105.954 23.2017 104.606 24.4254 102.357 24.4254C99.831 24.4254 98.6694 23.0431 97.9491 21.7017L110 16.7047L109.385 15.2406C108.222 12.3734 105.506 9.97754 101.912 9.97754H101.911ZM102.068 13.4325C103.71 13.4325 104.891 14.3046 105.393 15.3512L97.3447 18.7127C96.9965 16.1098 99.4654 13.4325 102.057 13.4325H102.068Z" fill="#DB3236"/>
<path d="M87.7734 27.4281H91.7322V0.952148H87.7734V27.4281Z" fill="#3CBA54"/>
</svg>
